<?xml version="1.0" standalone="no"?>
<!DOCTYPE svg PUBLIC "-//W3C//DTD SVG 20010904//EN"
 "http://www.w3.org/TR/2001/REC-SVG-20010904/DTD/svg10.dtd">
<svg version="1.0" xmlns="http://www.w3.org/2000/svg"
 width="540.000000pt" height="540.000000pt" viewBox="0 0 540.000000 540.000000"
 preserveAspectRatio="xMidYMid meet">
<metadata>
Created by potrace 1.11, written by Peter Selinger 2001-2013
</metadata>
<g transform="translate(0.000000,540.000000) scale(0.100000,-0.100000)"
fill="#000000" stroke="none">
<path d="M924 4560 c-39 -15 -58 -54 -70 -145 -1 -11 -8 -56 -14 -100 -13 -85
-14 -187 -3 -300 3 -38 5 -119 3 -180 -5 -200 -4 -339 4 -445 4 -58 9 -136 12
-175 2 -38 6 -83 9 -100 18 -128 23 -373 13 -690 -4 -114 -8 -138 -32 -195
-49 -117 -55 -126 -102 -166 -26 -21 -55 -46 -63 -56 -23 -24 -122 -89 -129
-84 -4 2 -16 0 -27 -5 -17 -6 -15 -8 10 -8 17 -1 56 -9 88 -19 53 -17 56 -19
40 -34 -10 -8 -25 -19 -35 -24 -16 -9 -86 -68 -163 -139 -22 -20 -52 -43 -68
-52 -16 -8 -27 -17 -24 -20 3 -2 15 1 27 7 16 8 35 9 72 1 45 -10 288 -89 297
-97 2 -1 -25 -6 -58 -10 -38 -4 -60 -11 -58 -18 2 -6 40 -23 85 -38 50 -16
123 -53 189 -94 116 -73 405 -208 469 -218 21 -4 66 -9 99 -11 270 -19 303
-22 355 -35 45 -11 197 -70 283 -109 37 -17 69 -31 71 -31 2 0 48 -20 101 -45
129 -60 205 -85 262 -85 338 -2 315 -4 433 45 58 23 168 71 245 105 165 73
286 119 335 126 19 3 45 7 56 9 12 2 71 6 130 10 241 14 249 16 378 72 175 76
284 132 371 193 28 19 52 35 55 36 3 0 12 4 20 7 8 4 46 17 84 30 80 26 97 47
39 48 -89 1 -79 14 43 57 168 58 210 67 240 53 31 -14 34 -14 34 -1 0 5 -3 9
-7 8 -10 -3 -93 52 -93 61 0 9 -118 107 -172 143 -26 18 -36 29 -27 33 73 26
106 35 133 36 26 0 28 2 11 8 -11 5 -23 6 -28 4 -4 -2 -24 9 -45 25 -20 16
-44 33 -53 38 -9 5 -45 36 -81 69 -81 76 -124 168 -136 290 -8 87 -7 684 1
750 26 201 35 472 27 735 -2 47 0 135 5 195 4 61 7 128 7 150 0 46 -12 177
-17 185 -2 3 -6 30 -9 60 -8 75 -33 127 -65 138 -28 9 -127 -6 -197 -31 -46
-17 -141 -64 -158 -78 -29 -25 -147 -106 -239 -165 -115 -72 -196 -113 -277
-139 -30 -10 -91 -35 -135 -55 -103 -48 -256 -99 -322 -106 -28 -3 -63 -8 -77
-12 -14 -4 -65 -4 -113 -1 -80 5 -503 2 -613 -5 -25 -1 -58 1 -75 5 -16 4 -43
10 -60 12 -16 3 -41 10 -55 16 -14 5 -76 24 -138 42 -62 17 -161 55 -220 84
-59 29 -112 54 -117 56 -22 8 -264 163 -345 220 -47 33 -110 73 -141 89 -88
45 -238 83 -275 70z"/>
</g>
</svg>
