<!DOCTYPE svg PUBLIC "-//W3C//DTD SVG 20010904//EN" "http://www.w3.org/TR/2001/REC-SVG-20010904/DTD/svg10.dtd">
<svg version="1.0" xmlns="http://www.w3.org/2000/svg" width="540px" height="540px" viewBox="0 0 5400 5400" preserveAspectRatio="xMidYMid meet">
<g id="layerbg1" fill="#040302" stroke="none">
 <path d="M2467 4559 c-31 -10 -87 -32 -125 -49 -37 -18 -109 -50 -161 -72 -52 -22 -101 -44 -110 -49 -9 -5 -65 -27 -126 -50 -114 -41 -175 -51 -410 -64 -112 -6 -190 -25 -287 -69 -29 -13 -91 -40 -138 -61 -47 -21 -128 -66 -181 -100 -55 -36 -130 -75 -175 -90 -101 -35 -136 -53 -131 -68 2 -7 14 -13 28 -15 56 -7 50 -15 -31 -43 -157 -53 -182 -58 -224 -41 -26 10 -41 11 -48 4 -7 -7 8 -23 49 -52 32 -24 81 -64 108 -90 28 -26 72 -64 98 -84 27 -20 46 -36 44 -36 -7 0 -128 -30 -146 -36 -21 -7 6 -34 34 -34 47 0 222 -139 255 -202 58 -110 67 -152 75 -378 5 -118 9 -226 9 -240 0 -45 -14 -254 -18 -278 -14 -69 -31 -422 -32 -667 0 -154 -3 -341 -6 -415 -5 -114 -2 -156 17 -270 22 -124 26 -137 54 -162 37 -33 59 -34 163 -9 97 24 182 65 278 135 117 85 312 203 453 273 120 59 305 123 457 156 68 15 800 13 905 -2 80 -12 235 -63 345 -113 41 -19 100 -43 130 -53 97 -31 208 -95 439 -253 130 -88 183 -115 266 -137 132 -34 183 -28 211 27 29 56 49 241 45 408 -6 230 -6 343 -1 460 2 58 1 155 -4 215 -4 61 -9 137 -11 170 -2 33 -9 124 -15 202 -8 92 -11 254 -8 460 5 338 4 326 59 451 34 76 211 222 269 222 64 0 45 41 -21 47 -22 2 -53 9 -67 15 l-27 10 34 26 c19 15 72 59 117 97 45 39 98 83 119 99 46 36 35 51 -26 35 -46 -12 -69 -7 -236 48 -59 19 -69 33 -24 33 36 0 50 19 27 35 -9 7 -57 27 -106 44 -55 19 -122 53 -177 90 -72 48 -228 131 -247 131 -2 0 -39 16 -81 35 -106 49 -165 63 -307 70 -239 12 -358 40 -538 123 -99 46 -320 143 -365 160 -62 24 -400 24 -478 1z m442 -70 c52 -17 203 -93 299 -151 150 -90 305 -132 687 -183 127 -17 189 -39 364 -131 69 -37 169 -81 223 -99 78 -25 93 -33 80 -42 -15 -10 -15 -12 3 -18 11 -4 72 -29 135 -55 63 -26 133 -51 155 -55 l40 -7 -25 -17 c-43 -28 -193 -157 -239 -204 -24 -25 -40 -50 -37 -56 4 -6 36 -11 73 -11 l66 0 -24 -26 c-13 -14 -49 -48 -79 -74 l-56 -48 -59 12 c-33 7 -105 21 -160 31 -55 9 -145 26 -200 36 -426 80 -566 90 -889 65 -115 -9 -239 -16 -277 -16 -37 0 -103 -7 -146 -15 -69 -13 -97 -14 -248 -1 -339 30 -716 49 -828 43 -106 -6 -300 -34 -522 -76 -55 -10 -145 -27 -200 -36 -55 -10 -127 -24 -160 -31 l-59 -12 -56 48 c-30 26 -66 60 -79 74 l-24 26 66 0 c40 0 69 5 73 12 9 14 -142 161 -235 228 l-62 45 33 8 c18 5 80 27 138 49 178 70 173 68 161 82 -8 10 6 18 67 36 42 13 140 56 217 96 197 102 257 123 420 145 368 51 501 88 660 184 123 74 271 144 325 153 63 11 336 5 379 -9z m-612 -1106 c363 -21 356 -21 818 2 432 21 570 17 805 -24 351 -60 548 -116 564 -157 7 -17 -53 -212 -83 -274 -10 -19 -32 -78 -50 -130 -44 -130 -98 -230 -139 -257 -44 -29 -114 -36 -252 -24 -78 7 -287 6 -651 -1 -404 -9 -688 -9 -1155 0 -428 8 -651 8 -724 1 -126 -12 -198 -5 -241 24 -39 26 -101 135 -129 227 -11 36 -38 108 -59 160 -59 146 -90 246 -84 270 7 24 46 43 163 76 129 37 409 91 605 117 75 10 329 6 612 -10z m-1272 -685 c20 -40 69 -115 108 -167 104 -138 153 -234 159 -313 l5 -63 -95 -2 c-52 -1 -100 -7 -105 -12 -14 -14 82 -104 186 -173 42 -29 77 -54 77 -58 0 -3 -19 -16 -43 -29 -23 -13 -80 -52 -127 -86 -47 -34 -94 -64 -104 -68 -12 -5 -16 -11 -10 -17 20 -19 233 -82 297 -87 37 -3 67 -8 67 -10 0 -12 -28 -54 -74 -112 -43 -55 -48 -66 -35 -74 14 -9 4 -25 -64 -106 -123 -147 -165 -191 -183 -191 -37 0 -97 -25 -111 -47 -14 -21 -14 -25 2 -43 35 -39 60 -27 183 94 64 62 155 147 202 188 47 42 102 96 122 121 30 35 54 51 117 77 82 33 175 95 165 111 -3 5 -22 2 -42 -7 -74 -33 -228 -92 -254 -98 -36 -8 -35 3 5 43 35 37 104 71 142 71 13 0 26 4 30 9 11 19 -34 31 -137 37 -90 5 -235 26 -277 40 -8 2 31 35 92 78 98 69 109 74 154 73 41 -2 48 1 48 16 0 14 -28 33 -100 70 -55 29 -126 70 -157 92 l-57 40 105 10 c105 10 130 23 76 39 -23 6 -31 16 -35 40 -4 17 -9 42 -13 54 l-7 24 33 -17 c23 -12 35 -14 43 -6 8 8 -1 23 -34 54 -41 38 -119 129 -119 139 0 3 75 11 168 19 243 21 2301 21 2545 0 92 -8 167 -16 167 -19 0 -10 -78 -101 -119 -139 -33 -31 -42 -46 -34 -54 8 -8 20 -6 43 6 l33 17 -7 -24 c-4 -12 -9 -37 -12 -54 -5 -22 -14 -33 -36 -42 -49 -18 -24 -30 83 -38 l100 -7 -53 -38 c-29 -21 -93 -59 -143 -85 -49 -25 -98 -54 -109 -64 -28 -28 -11 -43 40 -36 41 5 48 2 148 -67 57 -39 101 -75 98 -78 -13 -12 -186 -38 -286 -44 -98 -6 -142 -17 -131 -36 4 -5 17 -9 30 -9 37 0 108 -35 143 -70 62 -61 37 -61 -118 0 -52 21 -112 45 -132 54 -20 9 -39 12 -42 7 -10 -16 83 -78 164 -111 66 -26 88 -41 122 -82 23 -28 74 -77 112 -110 39 -33 128 -116 198 -184 133 -131 157 -144 193 -104 16 18 16 22 2 43 -14 22 -73 47 -110 47 -19 0 -78 62 -181 189 -59 73 -73 97 -65 107 9 10 0 28 -39 76 -44 57 -72 99 -72 111 0 2 30 7 68 10 62 5 276 67 295 87 5 4 -2 14 -16 21 -21 12 -182 122 -250 171 -16 12 -11 18 60 66 104 70 200 159 186 173 -5 5 -53 11 -105 12 l-95 2 5 64 c6 77 57 176 162 316 38 50 85 123 105 163 21 40 40 70 43 67 8 -7 41 -242 42 -291 0 -23 9 -86 21 -140 18 -90 21 -147 26 -604 4 -278 6 -563 6 -635 -1 -154 -14 -205 -55 -216 -40 -10 -161 17 -231 52 -62 32 -221 142 -305 212 -97 81 -281 200 -432 280 -149 79 -174 82 -455 61 -293 -22 -357 -22 -658 -1 -197 15 -260 16 -305 7 -110 -22 -424 -208 -612 -361 -88 -71 -228 -168 -290 -199 -67 -34 -182 -61 -225 -53 -34 7 -41 23 -55 120 -9 62 -10 132 -2 285 6 112 11 372 11 578 0 341 1 384 20 470 11 52 21 114 21 138 0 23 7 86 15 140 23 146 26 162 30 162 2 0 21 -33 40 -72z"/>
 <path d="M2520 4266 c-50 -13 -198 -109 -207 -133 -10 -25 12 -48 43 -48 23 0 33 7 45 32 24 49 40 64 84 84 52 24 107 24 155 -1 22 -11 49 -20 60 -20 11 0 38 9 60 20 50 25 103 25 160 -1 54 -25 80 -47 80 -69 0 -23 34 -53 56 -48 9 1 22 11 28 21 15 24 -1 47 -50 71 -21 10 -55 31 -74 46 -46 35 -67 46 -110 54 -30 5 -45 0 -90 -29 -30 -19 -57 -35 -60 -35 -3 0 -30 16 -60 35 -60 39 -58 38 -120 21z"/>
 <path d="M2580 4084 c-87 -53 -116 -78 -136 -116 -13 -24 -13 -32 0 -57 25 -47 58 -54 260 -53 200 0 237 8 256 58 19 48 -19 94 -140 168 -60 37 -83 46 -120 46 -37 0 -60 -9 -120 -46z"/>
 <path d="M1900 3079 c-203 -52 -239 -64 -264 -89 -34 -33 -30 -52 16 -77 26 -14 54 -18 138 -17 165 2 305 45 419 130 56 42 68 63 51 94 -18 34 -100 25 -360 -41z"/>
 <path d="M3138 3114 c-12 -25 -10 -29 36 -71 59 -53 167 -106 261 -129 101 -24 270 -24 313 -1 46 25 50 44 16 77 -25 25 -61 37 -271 89 -137 35 -264 61 -293 61 -45 0 -52 -3 -62 -26z"/>
 </g>
<g id="layerbg2" fill="#554f4e" stroke="none">
 <path d="M2645 4520 c-3 -5 0 -13 8 -16 23 -8 92 0 92 11 0 14 -92 19 -100 5z"/>
 <path d="M2506 4513 c-3 -4 -16 -8 -27 -10 -32 -5 -80 -33 -74 -43 5 -8 69 13 90 30 6 5 13 9 18 9 8 1 11 11 5 17 -3 2 -8 1 -12 -3z"/>
 <path d="M2876 4511 c-4 -5 -2 -12 4 -16 5 -3 10 -3 10 1 0 3 6 2 13 -4 23 -19 87 -41 92 -32 6 10 -42 38 -72 43 -10 1 -23 6 -30 10 -6 4 -14 3 -17 -2z"/>
 <path d="M2262 4399 c-29 -16 -50 -34 -47 -39 4 -6 26 1 53 17 58 33 66 39 55 46 -5 3 -33 -8 -61 -24z"/>
 <path d="M3076 4421 c-3 -5 31 -30 77 -56 45 -27 92 -54 104 -62 13 -9 23 -10 27 -4 4 5 -31 32 -76 59 -112 67 -126 73 -132 63z"/>
 <path d="M2070 4295 c-53 -23 -88 -36 -102 -39 -3 0 -9 -4 -13 -8 -4 -4 -13 -4 -20 -2 -7 3 -16 1 -19 -5 -4 -6 -13 -8 -20 -5 -17 7 -30 -12 -16 -21 6 -4 17 -2 24 4 7 6 16 8 19 5 3 -3 12 -2 19 2 7 5 16 9 21 10 4 1 8 2 10 3 1 2 13 4 27 6 41 5 142 54 135 65 -3 5 -7 10 -8 9 -1 0 -27 -11 -57 -24z"/>
 <path d="M3305 4290 c-3 -6 6 -15 22 -21 73 -29 106 -38 113 -34 5 3 12 0 15 -6 4 -5 13 -8 21 -5 7 3 16 1 20 -5 3 -5 13 -9 22 -7 10 1 23 -1 30 -5 6 -5 17 -5 22 -2 15 9 1 27 -16 21 -7 -3 -16 0 -20 5 -3 6 -15 9 -25 6 -10 -3 -22 -1 -25 4 -3 5 -11 9 -17 8 -7 -1 -19 1 -27 4 -21 9 -125 47 -127 47 -1 0 -5 -5 -8 -10z"/>
 <path d="M2526 4271 c-4 -6 -12 -8 -19 -5 -15 5 -54 -21 -41 -28 5 -3 20 -1 34 5 14 5 33 10 42 11 10 1 18 6 18 11 1 14 -27 19 -34 6z"/>
 <path d="M2585 4271 c-6 -11 29 -33 39 -24 7 7 -12 33 -25 33 -4 0 -10 -4 -14 -9z"/>
 <path d="M2781 4267 c-6 -8 -8 -17 -5 -20 10 -9 45 13 39 24 -9 13 -21 11 -34 -4z"/>
 <path d="M2835 4270 c-7 -12 20 -24 34 -16 5 4 12 2 16 -4 4 -6 11 -8 16 -4 5 3 7 10 3 15 -3 5 -9 7 -14 4 -5 -3 -11 -1 -15 5 -8 13 -32 13 -40 0z"/>
 <path d="M2639 4242 c-1 -4 -1 -11 0 -15 1 -4 -8 -3 -18 3 -13 6 -22 7 -26 0 -3 -5 19 -22 49 -37 l56 -27 56 27 c30 15 52 32 49 37 -4 7 -13 6 -26 0 -11 -6 -18 -7 -17 -1 4 12 -11 11 -41 -2 -18 -9 -29 -7 -52 5 -16 10 -30 14 -30 10z"/>
 <path d="M2927 4243 c-4 -3 -1 -13 6 -21 8 -11 8 -14 0 -9 -6 4 -14 3 -18 -2 -3 -6 8 -17 25 -26 16 -8 37 -27 46 -41 12 -17 20 -22 27 -15 7 7 6 16 -4 27 -13 16 -12 16 9 5 12 -6 22 -9 22 -5 0 4 9 -1 19 -10 11 -10 22 -13 25 -8 3 5 -1 15 -9 22 -8 7 -15 10 -15 6 0 -3 -17 4 -37 17 -21 13 -44 22 -52 19 -8 -2 -11 0 -8 5 8 12 -27 46 -36 36z"/>
 <path d="M1746 4211 c-4 -6 -13 -8 -20 -5 -17 6 -31 -12 -16 -21 5 -3 16 -3 22 1 7 5 22 8 33 8 11 1 22 6 25 11 7 13 -36 19 -44 6z"/>
 <path d="M2391 4201 c-14 -11 -19 -21 -13 -25 5 -3 20 2 33 12 29 24 11 36 -20 13z"/>
 <path d="M3605 4210 c-8 -13 20 -24 40 -17 8 4 17 2 21 -4 3 -5 13 -9 22 -8 10 1 25 -1 34 -5 9 -4 22 -5 28 -1 16 10 0 27 -21 22 -10 -3 -22 -1 -25 5 -3 5 -15 8 -25 5 -10 -3 -22 -1 -25 4 -7 12 -41 11 -49 -1z"/>
 <path d="M1645 4190 c-8 -12 20 -24 35 -15 6 3 8 11 5 16 -8 12 -32 12 -40 -1z"/>
 <path d="M1565 4180 c-8 -13 20 -24 41 -16 20 8 9 26 -16 26 -10 0 -22 -5 -25 -10z"/>
 <path d="M3785 4180 c-8 -13 20 -24 41 -16 20 8 9 26 -16 26 -10 0 -22 -5 -25 -10z"/>
 <path d="M1495 4170 c-8 -13 20 -24 41 -16 20 8 9 26 -16 26 -10 0 -22 -5 -25 -10z"/>
 <path d="M3855 4170 c-8 -13 20 -24 41 -16 20 8 9 26 -16 26 -10 0 -22 -5 -25 -10z"/>
 <path d="M1412 4158 c-6 -6 -12 -8 -12 -4 0 5 -7 3 -15 -4 -8 -7 -15 -9 -15 -5 0 4 -11 0 -25 -9 -14 -9 -25 -14 -25 -10 0 4 -7 1 -15 -6 -8 -7 -15 -10 -15 -6 0 3 -36 -12 -80 -34 -45 -22 -78 -45 -75 -50 3 -5 42 9 88 32 45 23 84 42 87 43 3 0 11 4 18 8 6 5 12 6 12 2 0 -3 10 0 23 7 12 7 25 13 30 14 4 1 10 3 15 4 4 1 15 3 24 4 10 0 18 6 18 11 1 15 -24 17 -38 3z"/>
 <path d="M3945 4160 c-7 -11 22 -26 32 -16 3 3 11 2 17 -3 6 -4 38 -18 71 -30 33 -12 120 -54 193 -92 133 -71 237 -113 252 -104 5 3 11 1 15 -5 4 -6 10 -8 15 -5 8 5 33 -29 34 -45 0 -11 136 -57 142 -49 5 9 -95 59 -118 59 -7 0 -7 5 1 14 10 12 8 17 -9 26 -12 6 -24 9 -27 6 -4 -3 -12 -1 -20 5 -7 6 -13 8 -13 4 0 -4 -6 -3 -12 2 -7 6 -38 18 -68 28 -30 10 -114 49 -187 87 -140 73 -251 121 -264 113 -4 -3 -10 -1 -14 5 -8 13 -32 13 -40 0z"/>
 <path d="M2644 4125 c-22 -17 -23 -16 56 -16 79 0 78 -1 56 16 -11 8 -36 15 -56 15 -20 0 -45 -7 -56 -15z"/>
 <path d="M2581 4091 c-14 -11 -19 -21 -13 -25 5 -3 20 2 33 12 29 24 11 36 -20 13z"/>
 <path d="M2785 4100 c-6 -10 96 -80 108 -73 12 7 0 20 -53 52 -27 17 -52 26 -55 21z"/>
 <path d="M2519 4052 c-29 -24 -11 -36 20 -13 14 11 19 21 13 25 -5 3 -20 -2 -33 -12z"/>
 <path d="M1025 3983 c-27 -15 -59 -28 -70 -29 -11 -1 -33 -8 -50 -15 -16 -7 -33 -13 -37 -14 -5 -2 -11 -4 -15 -5 -5 -1 -11 -2 -15 -1 -4 0 -13 -9 -19 -22 -11 -21 -36 -41 -51 -42 -5 0 -8 -3 -8 -7 0 -7 5 -10 13 -7 1 0 10 2 20 4 32 6 48 15 43 23 -6 10 10 37 24 38 5 1 11 2 13 3 1 2 13 4 27 6 14 2 39 9 55 15 17 6 31 11 33 11 11 -4 101 52 97 59 -7 12 0 14 -60 -17z"/>
 <path d="M719 3863 c-1 -4 -1 -11 0 -15 0 -4 -8 -12 -19 -18 -11 -6 -18 -15 -15 -21 4 -5 14 -5 26 2 12 6 18 13 15 16 -3 4 -1 12 5 19 7 8 7 14 -1 19 -5 3 -11 3 -11 -2z"/>
 <path d="M608 3791 c-20 -10 -39 -16 -42 -14 -3 3 -13 3 -22 -1 -13 -5 -14 -10 -6 -18 6 -6 18 -7 29 -3 10 5 22 7 26 6 15 -3 68 30 62 39 -7 12 -2 13 -47 -9z"/>
 <path d="M4745 3801 c-6 -11 53 -46 63 -37 3 3 11 1 18 -5 16 -13 48 -4 39 11 -4 6 -14 10 -23 9 -15 -2 -61 13 -83 26 -4 3 -10 1 -14 -4z"/>
 <path d="M4736 3531 c-4 -5 -2 -12 4 -16 5 -3 10 -3 10 1 0 3 7 1 15 -6 8 -7 15 -9 15 -5 0 4 6 2 14 -4 10 -8 16 -9 21 -1 3 5 4 11 1 11 -16 4 -26 7 -31 9 -3 1 -8 3 -12 4 -5 1 -13 5 -20 9 -6 4 -14 3 -17 -2z"/>
 <path d="M1685 3413 c-293 -38 -632 -112 -730 -159 -63 -30 -70 -57 -39 -150 15 -44 44 -122 65 -174 21 -52 46 -120 55 -150 20 -69 74 -177 110 -219 42 -50 79 -65 164 -63 41 0 273 0 515 -1 557 -3 1275 -2 1790 0 220 1 429 1 465 0 36 -1 77 2 92 6 73 20 135 114 202 305 19 55 42 114 49 129 8 15 32 79 52 141 35 107 36 114 21 137 -34 53 -208 103 -576 166 -235 41 -373 45 -805 24 -462 -23 -455 -23 -818 -2 -283 16 -537 20 -612 10z m562 -310 c15 -40 -147 -136 -284 -169 -132 -32 -333 -19 -333 21 0 29 48 47 270 103 248 63 336 75 347 45z m1246 -44 c228 -57 277 -75 277 -104 0 -41 -199 -53 -335 -21 -133 32 -297 130 -282 169 11 30 86 20 340 -44z"/>
 <path d="M865 2507 c-9 -22 -2 -62 10 -60 6 1 11 14 13 29 4 32 -14 56 -23 31z"/>
 <path d="M4544 2166 c-4 -10 -2 -22 4 -28 8 -8 13 -7 18 6 4 10 2 22 -4 28 -8 8 -13 7 -18 -6z"/>
 <path d="M834 2086 c-4 -10 -2 -22 4 -28 8 -8 13 -7 18 6 4 10 2 22 -4 28 -8 8 -13 7 -18 -6z"/>
 <path d="M4554 1626 c-4 -10 -2 -22 4 -28 8 -8 13 -7 18 6 4 10 2 22 -4 28 -8 8 -13 7 -18 -6z"/>
 <path d="M4554 1086 c-4 -10 -2 -22 4 -28 8 -8 13 -7 18 6 4 10 2 22 -4 28 -8 8 -13 7 -18 -6z"/>
 </g>
<g id="layerbg3" fill="#ce4516" stroke="none">
 <path d="M2380 3949 c-125 -54 -181 -64 -279 -51 -47 7 -137 15 -200 19 -93 5 -116 4 -125 -8 -6 -8 -94 -36 -196 -63 l-186 -47 -188 4 c-175 5 -250 -2 -232 -21 4 -4 26 -14 49 -23 39 -15 28 -16 -223 -11 -146 2 -270 8 -276 13 -6 5 -18 3 -29 -5 -16 -12 -15 -15 21 -37 47 -29 196 -153 243 -203 l35 -36 -81 0 c-89 0 -110 -11 -66 -34 16 -7 37 -24 48 -36 11 -12 45 -44 75 -70 l56 -48 59 12 c33 7 105 21 160 31 55 9 145 26 200 36 222 42 416 70 522 76 112 6 489 -13 828 -43 151 -13 179 -12 248 1 43 8 109 15 146 15 38 0 162 7 277 16 323 25 463 15 889 -65 55 -10 145 -27 200 -36 55 -10 127 -24 160 -31 l59 -12 56 48 c30 26 64 58 75 70 11 12 32 29 48 36 44 23 23 34 -66 34 l-81 0 35 36 c46 49 195 174 242 203 21 13 35 26 32 29 -6 7 -212 5 -435 -4 l-145 -5 43 20 c24 11 41 25 37 31 -4 6 -83 10 -213 10 l-207 0 -187 47 c-103 26 -186 52 -185 57 3 17 -63 18 -196 6 -269 -26 -256 -27 -411 37 -57 24 -70 24 -72 0 0 -7 -2 -19 -2 -28 -3 -29 -54 -40 -198 -41 -240 -1 -242 -1 -270 27 -17 17 -23 32 -19 44 9 30 -5 30 -75 0z"/>
 <path d="M966 2782 c-8 -14 -46 -271 -46 -316 0 -23 -10 -84 -21 -136 -19 -86 -20 -129 -20 -470 0 -206 -5 -466 -11 -577 -15 -299 5 -412 77 -426 43 -8 159 19 225 53 62 31 202 128 290 199 188 153 502 339 612 361 45 9 108 8 305 -7 301 -21 365 -21 658 1 281 21 306 18 455 -61 151 -80 335 -199 432 -280 84 -70 243 -180 305 -212 69 -34 192 -62 230 -52 72 19 91 128 75 431 -6 113 -11 372 -11 575 1 336 -1 379 -20 469 -12 54 -21 115 -21 135 0 59 -38 303 -49 314 -16 16 -36 -7 -76 -86 -20 -40 -67 -113 -105 -162 -37 -50 -88 -126 -112 -170 -24 -44 -47 -79 -51 -77 -4 1 -22 -5 -40 -14 l-32 -16 36 38 c67 73 111 135 106 148 -5 13 -13 14 -322 35 -179 12 -2074 13 -2260 0 -305 -20 -327 -22 -332 -35 -5 -13 39 -75 106 -148 l36 -38 -32 16 c-18 9 -36 15 -40 14 -4 -2 -26 31 -48 73 -23 41 -73 118 -112 170 -39 52 -86 123 -103 159 -45 88 -69 116 -84 92z m385 -634 c7 -14 2 -18 -34 -22 -23 -4 -62 -7 -87 -9 -26 -1 -45 -7 -45 -14 0 -15 142 -111 235 -157 96 -48 108 -61 53 -52 -40 6 -48 3 -125 -52 -46 -33 -103 -71 -127 -86 -24 -15 -39 -31 -35 -36 15 -14 214 -50 283 -51 36 -1 77 -4 91 -8 24 -7 24 -8 -12 -20 -38 -12 -108 -73 -128 -110 -24 -46 51 -34 210 33 44 19 78 30 75 26 -3 -5 -46 -25 -96 -46 -77 -32 -98 -46 -138 -92 -25 -29 -91 -93 -146 -141 -55 -49 -120 -108 -145 -132 -59 -57 -38 -28 92 126 101 120 121 153 80 138 -9 -4 6 22 34 57 97 123 96 135 -8 143 -44 3 -112 18 -172 38 l-98 33 28 23 c16 13 69 49 117 81 49 31 100 66 114 77 l25 21 -82 53 c-45 28 -108 76 -139 106 l-59 53 72 5 c39 3 85 5 101 4 l30 -2 -2 65 -2 65 15 -50 c9 -27 20 -58 25 -67z m2737 50 l-3 -63 30 2 c17 1 62 -1 101 -4 l72 -5 -57 -52 c-31 -28 -90 -73 -131 -100 -41 -27 -79 -52 -83 -56 -5 -4 50 -47 122 -95 71 -47 135 -92 140 -99 16 -19 -164 -77 -257 -83 -79 -6 -92 -16 -71 -54 10 -20 6 -18 -29 9 -22 18 -56 38 -74 44 -33 12 -33 12 -8 19 14 4 55 7 91 8 69 1 268 37 283 51 4 5 -9 19 -31 33 -21 14 -78 52 -126 86 -83 57 -90 61 -130 55 -55 -9 -43 4 53 52 93 46 235 142 235 157 0 7 -20 13 -50 15 -96 4 -113 10 -108 35 11 54 26 107 30 107 3 0 3 -28 1 -62z m-182 -684 c30 -9 62 -13 71 -10 14 6 14 9 -1 31 -29 44 -10 27 39 -36 27 -35 41 -59 32 -57 -9 2 -16 -1 -17 -5 -1 -5 39 -59 89 -120 157 -193 160 -195 226 -212 58 -15 78 -29 72 -50 -2 -5 -16 -11 -30 -13 -23 -3 -45 14 -134 103 -60 59 -144 138 -188 175 -45 38 -104 95 -132 128 -45 51 -63 63 -142 96 -50 21 -93 41 -96 46 -3 4 31 -7 75 -26 45 -18 106 -41 136 -50z m-2819 -429 c-46 -43 -88 -57 -101 -36 -13 20 8 39 52 51 26 6 56 16 67 20 34 14 32 11 -18 -35z"/>
 </g>
<g id="layerbg4" fill="#fdfcfc" stroke="none">
 <path d="M2445 4486 c-45 -18 -144 -69 -220 -114 -78 -45 -175 -92 -219 -106 -87 -29 -285 -67 -474 -91 -146 -19 -209 -41 -398 -140 -77 -40 -181 -86 -230 -100 -108 -33 -111 -35 -91 -50 14 -10 11 -14 -23 -24 -22 -6 -70 -26 -107 -43 -38 -17 -90 -36 -118 -43 -31 -7 -50 -17 -50 -26 0 -12 48 -15 285 -21 157 -4 291 -5 299 -2 11 3 11 7 1 19 -7 8 -18 15 -24 15 -6 1 -24 7 -41 14 -26 12 -4 13 165 9 l195 -4 200 51 c110 29 206 57 213 62 14 12 151 5 293 -14 97 -13 133 -7 259 43 48 19 91 45 120 73 25 23 57 50 72 59 77 47 120 67 147 67 46 0 148 -58 209 -118 53 -52 104 -79 220 -117 56 -18 62 -18 305 5 124 11 141 11 170 -4 18 -9 112 -36 209 -61 l177 -45 193 -1 193 0 -43 -18 c-24 -9 -43 -21 -43 -27 2 -13 582 -5 599 9 18 14 8 20 -51 33 -81 18 -271 100 -251 108 27 10 7 22 -91 51 -50 15 -153 60 -230 100 -178 93 -255 122 -363 135 -138 17 -381 59 -459 80 -84 23 -162 57 -247 109 -102 63 -178 102 -254 132 -70 28 -78 29 -245 29 -171 -1 -172 -1 -252 -34z m197 -256 c22 -16 49 -30 58 -30 9 0 36 14 58 30 65 47 122 37 220 -37 24 -18 54 -36 68 -39 17 -4 24 -13 24 -30 0 -37 -33 -30 -61 13 -32 49 -93 90 -148 98 -37 6 -55 2 -103 -21 l-58 -28 -58 28 c-49 24 -65 27 -106 21 -67 -10 -133 -61 -150 -117 -8 -26 -56 -24 -56 2 0 13 25 36 76 71 118 79 168 88 236 39z"/>
 </g>
<g id="layer101" fill="#040302" stroke="none">
 <path d="M2467 4549 c-31 -10 -87 -32 -125 -49 -37 -18 -109 -50 -161 -72 -52 -22 -101 -44 -110 -49 -9 -5 -65 -27 -126 -50 -114 -41 -175 -51 -410 -64 -112 -6 -190 -25 -287 -69 -29 -13 -91 -40 -138 -61 -47 -21 -128 -66 -181 -100 -54 -35 -130 -75 -173 -89 -146 -51 -155 -60 -70 -71 31 -4 52 -10 48 -15 -9 -8 -58 -24 -224 -75 -70 -21 -78 -22 -113 -8 -55 22 -55 10 -1 -28 26 -18 80 -62 118 -97 39 -36 88 -76 109 -90 21 -14 34 -29 30 -33 -5 -5 -41 -17 -81 -27 -69 -16 -86 -32 -36 -32 46 0 232 -148 265 -212 58 -112 66 -152 74 -378 5 -118 9 -226 9 -240 0 -45 -14 -254 -18 -278 -14 -69 -31 -422 -32 -667 0 -154 -3 -341 -6 -415 -5 -114 -2 -156 17 -270 21 -118 27 -138 50 -157 32 -28 57 -28 157 -4 97 24 182 65 278 135 117 85 312 203 453 273 120 59 305 123 457 156 68 15 800 13 905 -2 80 -12 235 -63 345 -113 41 -19 100 -43 130 -53 97 -31 208 -95 439 -253 130 -88 183 -115 266 -137 130 -34 181 -28 204 23 27 58 46 243 42 402 -6 230 -6 343 -1 460 2 58 1 155 -4 215 -4 61 -9 137 -11 170 -2 33 -9 124 -15 202 -8 92 -11 254 -8 460 5 338 4 326 60 452 35 79 219 231 280 231 41 0 31 22 -12 26 -46 5 -120 25 -120 33 0 3 24 23 53 44 28 20 73 57 99 82 26 24 73 63 104 85 30 23 54 44 51 46 -2 3 -24 -1 -48 -7 -46 -12 -74 -7 -249 52 -87 29 -92 37 -31 45 28 4 51 10 51 14 0 9 -5 11 -117 51 -47 17 -120 54 -170 88 -72 48 -228 131 -247 131 -2 0 -39 16 -81 35 -106 49 -165 63 -307 70 -239 12 -358 40 -538 123 -99 46 -320 143 -365 160 -62 24 -400 24 -478 1z m442 -50 c52 -17 203 -93 299 -151 150 -90 305 -132 687 -183 128 -17 188 -39 369 -134 72 -38 178 -83 235 -102 96 -30 101 -33 79 -45 -12 -7 -17 -13 -10 -14 8 0 66 -22 130 -49 65 -27 138 -52 165 -56 26 -4 47 -10 47 -14 0 -4 -14 -15 -31 -25 -66 -39 -279 -228 -279 -248 0 -4 39 -8 88 -8 l87 0 -30 -18 c-16 -11 -36 -26 -44 -36 -8 -9 -39 -39 -70 -65 l-57 -49 -59 12 c-33 7 -105 21 -160 31 -55 9 -145 26 -200 36 -426 80 -566 90 -889 65 -115 -9 -239 -16 -277 -16 -37 0 -103 -7 -146 -15 -69 -13 -97 -14 -248 -1 -339 30 -716 49 -828 43 -106 -6 -300 -34 -522 -76 -55 -10 -145 -27 -200 -36 -55 -10 -127 -24 -160 -31 l-59 -12 -57 49 c-31 26 -62 56 -70 65 -8 10 -27 25 -44 36 l-30 18 88 0 c48 0 87 4 87 8 0 19 -191 190 -274 245 l-38 25 43 12 c24 6 103 35 175 63 108 42 128 54 116 63 -13 10 2 18 83 44 55 17 159 62 230 100 184 97 247 119 410 141 368 51 501 88 660 184 123 74 271 144 325 153 63 11 336 5 379 -9z m-612 -1106 c363 -21 356 -21 818 2 200 10 420 15 495 12 230 -9 685 -97 832 -161 62 -27 64 -42 23 -169 -21 -62 -44 -125 -52 -140 -7 -15 -30 -74 -49 -129 -66 -190 -122 -276 -192 -295 -15 -4 -56 -7 -92 -6 -36 1 -245 1 -465 0 -515 -2 -1233 -3 -1790 0 -242 1 -474 1 -515 1 -86 -2 -125 14 -163 64 -35 47 -82 143 -101 208 -9 30 -34 98 -55 150 -21 52 -50 130 -64 173 -40 119 -30 131 153 183 129 37 409 91 605 117 75 10 329 6 612 -10z m-1263 -694 c21 -41 70 -116 109 -168 106 -142 153 -234 160 -317 l5 -69 -100 -2 c-55 0 -102 -4 -105 -7 -9 -9 105 -108 194 -168 l85 -57 -47 -28 c-26 -15 -89 -58 -140 -94 -51 -37 -99 -69 -106 -71 -26 -9 216 -80 289 -85 39 -3 72 -10 72 -15 0 -17 -22 -52 -71 -114 -54 -68 -58 -79 -29 -71 26 7 25 5 -90 -133 -131 -155 -155 -180 -175 -180 -36 0 -97 -24 -106 -42 -14 -25 5 -48 38 -48 18 0 50 25 111 86 48 48 137 130 197 184 61 54 129 120 152 147 34 41 57 56 130 87 48 20 104 50 123 67 l35 31 -40 -17 c-115 -50 -234 -94 -269 -101 -36 -6 -38 -6 -27 14 31 59 128 122 189 122 22 1 24 2 11 10 -9 5 -61 12 -115 15 -54 3 -151 15 -214 27 -92 17 -111 23 -96 32 10 6 65 44 122 83 101 70 106 72 149 66 71 -9 57 16 -32 61 -86 42 -252 147 -253 159 0 4 17 7 38 7 22 0 74 3 118 7 75 6 77 7 45 18 -29 9 -36 18 -46 56 -6 24 -15 54 -19 67 l-8 23 42 -21 c52 -26 65 -17 23 16 -33 26 -133 148 -133 162 0 9 43 13 325 31 186 13 2081 12 2260 0 290 -20 315 -22 315 -31 0 -14 -100 -136 -133 -162 -42 -33 -29 -43 22 -16 23 11 41 19 41 16 0 -2 -7 -23 -15 -46 -8 -23 -15 -53 -15 -65 0 -17 -8 -24 -32 -30 -32 -8 -31 -8 22 -16 30 -4 81 -7 113 -8 31 -1 57 -4 57 -8 -1 -11 -163 -115 -240 -153 -74 -37 -90 -48 -90 -63 0 -6 17 -7 45 -4 43 6 48 4 149 -66 57 -39 112 -77 122 -83 15 -8 -5 -15 -96 -32 -63 -12 -160 -24 -214 -27 -54 -3 -106 -10 -115 -15 -13 -8 -11 -9 10 -10 60 0 150 -55 183 -111 l19 -32 -39 7 c-35 7 -153 51 -269 101 l-40 17 35 -31 c19 -17 75 -47 123 -67 75 -32 96 -46 135 -92 26 -30 76 -79 112 -109 36 -30 122 -111 192 -179 92 -90 133 -124 151 -124 33 0 51 23 38 48 -9 18 -70 42 -105 42 -19 0 -82 66 -186 195 -40 50 -79 98 -87 107 -13 15 -13 16 6 11 30 -8 27 2 -28 71 -49 62 -71 97 -71 114 0 5 33 12 73 15 44 3 116 19 185 42 97 32 110 39 93 49 -11 6 -61 41 -113 77 -51 36 -110 76 -131 88 l-37 23 84 56 c88 60 202 159 193 168 -3 3 -50 7 -105 7 l-100 2 5 69 c5 57 14 84 51 150 24 45 75 122 112 171 38 50 85 123 105 163 36 70 51 89 61 79 7 -7 44 -265 44 -308 0 -20 9 -81 21 -135 19 -90 21 -133 20 -469 0 -203 5 -462 11 -575 11 -217 2 -352 -26 -396 -8 -12 -27 -24 -42 -27 -41 -7 -161 21 -227 54 -62 32 -221 142 -305 212 -97 81 -281 200 -432 280 -149 79 -174 82 -455 61 -293 -22 -357 -22 -658 -1 -197 15 -260 16 -305 7 -110 -22 -424 -208 -612 -361 -88 -71 -228 -168 -290 -199 -67 -34 -182 -61 -225 -52 -37 7 -52 36 -65 129 -9 62 -10 133 -2 285 6 112 11 372 11 578 0 341 1 384 20 470 11 52 21 113 21 136 0 23 9 99 20 170 11 71 20 133 20 137 0 26 30 -9 64 -74z"/>
 <path d="M2520 4256 c-25 -7 -80 -36 -123 -65 -62 -42 -78 -57 -75 -74 2 -16 11 -23 31 -25 23 -3 30 2 41 30 39 91 157 134 246 88 22 -11 49 -20 60 -20 11 0 38 9 60 20 22 11 56 20 77 20 68 -1 173 -61 173 -101 0 -22 24 -42 47 -37 12 2 18 12 18 28 0 19 -9 29 -40 44 -22 10 -56 31 -75 46 -46 35 -67 46 -110 54 -30 5 -45 0 -90 -29 -30 -19 -57 -35 -60 -35 -3 0 -30 16 -60 35 -60 39 -58 38 -120 21z"/>
 <path d="M2580 4074 c-89 -54 -107 -70 -126 -106 -18 -35 -3 -72 37 -89 47 -19 387 -16 426 4 36 19 47 51 28 86 -18 35 -37 51 -125 105 -60 37 -83 46 -120 46 -37 0 -60 -9 -120 -46z"/>
 <path d="M1900 3068 c-232 -59 -280 -78 -280 -114 0 -8 15 -21 33 -31 42 -23 213 -23 309 0 119 29 278 115 293 158 23 67 -53 64 -355 -13z"/>
 <path d="M3144 3108 c-15 -48 146 -149 291 -184 100 -24 270 -24 313 -1 38 21 40 36 10 65 -29 26 -482 142 -557 142 -42 0 -51 -3 -57 -22z"/>
 </g>
<g id="layer102" fill="#554f4e" stroke="none">
 <path d="M2783 4563 c4 -3 10 -3 14 0 3 4 0 7 -7 7 -7 0 -10 -3 -7 -7z"/>
 <path d="M2573 4513 c4 -3 10 -3 14 0 3 4 0 7 -7 7 -7 0 -10 -3 -7 -7z"/>
 <path d="M2673 4513 c15 -2 37 -2 50 0 12 2 0 4 -28 4 -27 0 -38 -2 -22 -4z"/>
 <path d="M2453 4483 c4 -3 10 -3 14 0 3 4 0 7 -7 7 -7 0 -10 -3 -7 -7z"/>
 <path d="M2933 4483 c4 -3 10 -3 14 0 3 4 0 7 -7 7 -7 0 -10 -3 -7 -7z"/>
 <path d="M3035 4440 c3 -5 8 -10 11 -10 3 0 2 5 -1 10 -3 6 -8 10 -11 10 -3 0 -2 -4 1 -10z"/>
 <path d="M2244 4378 c-4 -7 -3 -8 4 -4 12 7 16 16 8 16 -3 0 -8 -5 -12 -12z"/>
 <path d="M3145 4380 c3 -5 8 -10 11 -10 3 0 2 5 -1 10 -3 6 -8 10 -11 10 -3 0 -2 -4 1 -10z"/>
 <path d="M3195 4350 c3 -5 8 -10 11 -10 3 0 2 5 -1 10 -3 6 -8 10 -11 10 -3 0 -2 -4 1 -10z"/>
 <path d="M3245 4320 c3 -5 8 -10 11 -10 3 0 2 5 -1 10 -3 6 -8 10 -11 10 -3 0 -2 -4 1 -10z"/>
 <path d="M2073 4283 c4 -3 10 -3 14 0 3 4 0 7 -7 7 -7 0 -10 -3 -7 -7z"/>
 <path d="M3313 4283 c4 -3 10 -3 14 0 3 4 0 7 -7 7 -7 0 -10 -3 -7 -7z"/>
 <path d="M3693 4273 c4 -3 10 -3 14 0 3 4 0 7 -7 7 -7 0 -10 -3 -7 -7z"/>
 <path d="M2023 4263 c4 -3 10 -3 14 0 3 4 0 7 -7 7 -7 0 -10 -3 -7 -7z"/>
 <path d="M2538 4263 c7 -3 16 -2 19 1 4 3 -2 6 -13 5 -11 0 -14 -3 -6 -6z"/>
 <path d="M2590 4266 c0 -2 7 -7 16 -10 8 -3 12 -2 9 4 -6 10 -25 14 -25 6z"/>
 <path d="M2785 4260 c-3 -6 1 -7 9 -4 18 7 21 14 7 14 -6 0 -13 -4 -16 -10z"/>
 <path d="M2848 4263 c7 -3 16 -2 19 1 4 3 -2 6 -13 5 -11 0 -14 -3 -6 -6z"/>
 <path d="M3363 4263 c4 -3 10 -3 14 0 3 4 0 7 -7 7 -7 0 -10 -3 -7 -7z"/>
 <path d="M1993 4253 c4 -3 10 -3 14 0 3 4 0 7 -7 7 -7 0 -10 -3 -7 -7z"/>
 <path d="M2493 4253 c4 -3 10 -3 14 0 3 4 0 7 -7 7 -7 0 -10 -3 -7 -7z"/>
 <path d="M3393 4253 c4 -3 10 -3 14 0 3 4 0 7 -7 7 -7 0 -10 -3 -7 -7z"/>
 <path d="M3423 4243 c4 -3 10 -3 14 0 3 4 0 7 -7 7 -7 0 -10 -3 -7 -7z"/>
 <path d="M1923 4233 c4 -3 10 -3 14 0 3 4 0 7 -7 7 -7 0 -10 -3 -7 -7z"/>
 <path d="M2645 4230 c3 -5 8 -10 11 -10 3 0 2 5 -1 10 -3 6 -8 10 -11 10 -3 0 -2 -4 1 -10z"/>
 <path d="M2744 4228 c-4 -7 -3 -8 4 -4 7 4 12 9 12 12 0 8 -9 4 -16 -8z"/>
 <path d="M2930 4236 c0 -2 8 -10 18 -17 15 -13 16 -12 3 4 -13 16 -21 21 -21 13z"/>
 <path d="M3463 4233 c4 -3 10 -3 14 0 3 4 0 7 -7 7 -7 0 -10 -3 -7 -7z"/>
 <path d="M1883 4223 c4 -3 10 -3 14 0 3 4 0 7 -7 7 -7 0 -10 -3 -7 -7z"/>
 <path d="M2523 4223 c4 -3 10 -3 14 0 3 4 0 7 -7 7 -7 0 -10 -3 -7 -7z"/>
 <path d="M2863 4223 c4 -3 10 -3 14 0 3 4 0 7 -7 7 -7 0 -10 -3 -7 -7z"/>
 <path d="M3508 4223 c7 -3 16 -2 19 1 4 3 -2 6 -13 5 -11 0 -14 -3 -6 -6z"/>
 <path d="M1833 4213 c4 -3 10 -3 14 0 3 4 0 7 -7 7 -7 0 -10 -3 -7 -7z"/>
 <path d="M3553 4213 c4 -3 10 -3 14 0 3 4 0 7 -7 7 -7 0 -10 -3 -7 -7z"/>
 <path d="M1758 4203 c6 -2 18 -2 25 0 6 3 1 5 -13 5 -14 0 -19 -2 -12 -5z"/>
 <path d="M2404 4198 c-4 -7 -3 -8 4 -4 7 4 12 9 12 12 0 8 -9 4 -16 -8z"/>
 <path d="M2693 4203 c4 -3 10 -3 14 0 3 4 0 7 -7 7 -7 0 -10 -3 -7 -7z"/>
 <path d="M3618 4203 c6 -2 18 -2 25 0 6 3 1 5 -13 5 -14 0 -19 -2 -12 -5z"/>
 <path d="M1713 4193 c4 -3 10 -3 14 0 3 4 0 7 -7 7 -7 0 -10 -3 -7 -7z"/>
 <path d="M2985 4190 c3 -5 8 -10 11 -10 3 0 2 5 -1 10 -3 6 -8 10 -11 10 -3 0 -2 -4 1 -10z"/>
 <path d="M3678 4193 c7 -3 16 -2 19 1 4 3 -2 6 -13 5 -11 0 -14 -3 -6 -6z"/>
 <path d="M1658 4183 c7 -3 16 -2 19 1 4 3 -2 6 -13 5 -11 0 -14 -3 -6 -6z"/>
 <path d="M2688 4183 c6 -2 18 -2 25 0 6 3 1 5 -13 5 -14 0 -19 -2 -12 -5z"/>
 <path d="M2981 4164 c13 -17 26 -30 28 -27 3 2 -8 16 -24 31 l-28 27 24 -31z"/>
 <path d="M3728 4183 c7 -3 16 -2 19 1 4 3 -2 6 -13 5 -11 0 -14 -3 -6 -6z"/>
 <path d="M1578 4173 c6 -2 18 -2 25 0 6 3 1 5 -13 5 -14 0 -19 -2 -12 -5z"/>
 <path d="M3798 4173 c6 -2 18 -2 25 0 6 3 1 5 -13 5 -14 0 -19 -2 -12 -5z"/>
 <path d="M1508 4163 c6 -2 18 -2 25 0 6 3 1 5 -13 5 -14 0 -19 -2 -12 -5z"/>
 <path d="M3868 4163 c6 -2 18 -2 25 0 6 3 1 5 -13 5 -14 0 -19 -2 -12 -5z"/>
 <path d="M1428 4153 c7 -3 16 -2 19 1 4 3 -2 6 -13 5 -11 0 -14 -3 -6 -6z"/>
 <path d="M3065 4150 c3 -5 8 -10 11 -10 3 0 2 5 -1 10 -3 6 -8 10 -11 10 -3 0 -2 -4 1 -10z"/>
 <path d="M3958 4153 c7 -3 16 -2 19 1 4 3 -2 6 -13 5 -11 0 -14 -3 -6 -6z"/>
 <path d="M4003 4143 c4 -3 10 -3 14 0 3 4 0 7 -7 7 -7 0 -10 -3 -7 -7z"/>
 <path d="M2678 4123 c12 -2 32 -2 45 0 12 2 2 4 -23 4 -25 0 -35 -2 -22 -4z"/>
 <path d="M4053 4123 c4 -3 10 -3 14 0 3 4 0 7 -7 7 -7 0 -10 -3 -7 -7z"/>
 <path d="M4083 4113 c4 -3 10 -3 14 0 3 4 0 7 -7 7 -7 0 -10 -3 -7 -7z"/>
 <path d="M2594 4088 c-4 -7 -3 -8 4 -4 12 7 16 16 8 16 -3 0 -8 -5 -12 -12z"/>
 <path d="M2795 4090 c3 -5 8 -10 11 -10 3 0 2 5 -1 10 -3 6 -8 10 -11 10 -3 0 -2 -4 1 -10z"/>
 <path d="M2845 4060 c3 -5 8 -10 11 -10 3 0 2 5 -1 10 -3 6 -8 10 -11 10 -3 0 -2 -4 1 -10z"/>
 <path d="M2514 4038 c-4 -7 -3 -8 4 -4 12 7 16 16 8 16 -3 0 -8 -5 -12 -12z"/>
 <path d="M2875 4040 c3 -5 8 -10 11 -10 3 0 2 5 -1 10 -3 6 -8 10 -11 10 -3 0 -2 -4 1 -10z"/>
 <path d="M4270 4026 c0 -3 9 -10 20 -16 11 -6 20 -8 20 -6 0 3 -9 10 -20 16 -11 6 -20 8 -20 6z"/>
 <path d="M4403 3953 c4 -3 10 -3 14 0 3 4 0 7 -7 7 -7 0 -10 -3 -7 -7z"/>
 <path d="M953 3943 c4 -3 10 -3 14 0 3 4 0 7 -7 7 -7 0 -10 -3 -7 -7z"/>
 <path d="M4433 3943 c4 -3 10 -3 14 0 3 4 0 7 -7 7 -7 0 -10 -3 -7 -7z"/>
 <path d="M923 3933 c4 -3 10 -3 14 0 3 4 0 7 -7 7 -7 0 -10 -3 -7 -7z"/>
 <path d="M4463 3933 c4 -3 10 -3 14 0 3 4 0 7 -7 7 -7 0 -10 -3 -7 -7z"/>
 <path d="M893 3923 c4 -3 10 -3 14 0 3 4 0 7 -7 7 -7 0 -10 -3 -7 -7z"/>
 <path d="M4493 3923 c4 -3 10 -3 14 0 3 4 0 7 -7 7 -7 0 -10 -3 -7 -7z"/>
 <path d="M4563 3903 c4 -3 10 -3 14 0 3 4 0 7 -7 7 -7 0 -10 -3 -7 -7z"/>
 <path d="M813 3863 c4 -3 10 -3 14 0 3 4 0 7 -7 7 -7 0 -10 -3 -7 -7z"/>
 <path d="M4573 3863 c4 -3 10 -3 14 0 3 4 0 7 -7 7 -7 0 -10 -3 -7 -7z"/>
 <path d="M4603 3853 c4 -3 10 -3 14 0 3 4 0 7 -7 7 -7 0 -10 -3 -7 -7z"/>
 <path d="M4653 3833 c4 -3 10 -3 14 0 3 4 0 7 -7 7 -7 0 -10 -3 -7 -7z"/>
 <path d="M593 3773 c4 -3 10 -3 14 0 3 4 0 7 -7 7 -7 0 -10 -3 -7 -7z"/>
 <path d="M4793 3773 c4 -3 10 -3 14 0 3 4 0 7 -7 7 -7 0 -10 -3 -7 -7z"/>
 <path d="M548 3763 c7 -3 16 -2 19 1 4 3 -2 6 -13 5 -11 0 -14 -3 -6 -6z"/>
 <path d="M4838 3763 c7 -3 16 -2 19 1 4 3 -2 6 -13 5 -11 0 -14 -3 -6 -6z"/>
 <path d="M4893 3753 c4 -3 10 -3 14 0 3 4 0 7 -7 7 -7 0 -10 -3 -7 -7z"/>
 <path d="M523 3493 c4 -3 10 -3 14 0 3 4 0 7 -7 7 -7 0 -10 -3 -7 -7z"/>
 <path d="M4863 3493 c4 -3 10 -3 14 0 3 4 0 7 -7 7 -7 0 -10 -3 -7 -7z"/>
 <path d="M1685 3403 c-196 -26 -476 -80 -605 -117 -183 -52 -193 -64 -153 -183 14 -43 43 -121 64 -173 21 -52 46 -120 55 -150 19 -65 66 -161 101 -208 38 -50 77 -66 163 -64 41 0 273 0 515 -1 557 -3 1275 -2 1790 0 220 1 429 1 465 0 36 -1 77 2 92 6 70 19 126 105 192 295 19 55 42 114 49 129 8 15 31 78 52 140 41 127 39 142 -23 169 -147 64 -602 152 -832 161 -75 3 -295 -2 -495 -12 -462 -23 -455 -23 -818 -2 -283 16 -537 20 -612 10z m569 -289 c10 -27 -2 -47 -50 -83 -110 -80 -252 -123 -414 -125 -83 -1 -112 3 -137 17 -18 10 -33 23 -33 31 0 36 48 55 280 114 248 64 343 76 354 46z m1239 -45 c239 -60 287 -79 287 -115 0 -8 -15 -21 -32 -31 -43 -23 -213 -23 -313 1 -145 35 -306 136 -291 184 12 36 82 28 349 -39z"/>
 <path d="M872 2480 c0 -19 2 -27 5 -17 2 9 2 25 0 35 -3 9 -5 1 -5 -18z"/>
 <path d="M4551 2154 c0 -11 3 -14 6 -6 3 7 2 16 -1 19 -3 4 -6 -2 -5 -13z"/>
 <path d="M841 2074 c0 -11 3 -14 6 -6 3 7 2 16 -1 19 -3 4 -6 -2 -5 -13z"/>
 <path d="M4570 1820 c0 -7 3 -10 7 -7 3 4 3 10 0 14 -4 3 -7 0 -7 -7z"/>
 <path d="M830 1640 c0 -7 3 -10 7 -7 3 4 3 10 0 14 -4 3 -7 0 -7 -7z"/>
 <path d="M4561 1614 c0 -11 3 -14 6 -6 3 7 2 16 -1 19 -3 4 -6 -2 -5 -13z"/>
 <path d="M4560 1450 c0 -7 3 -10 7 -7 3 4 3 10 0 14 -4 3 -7 0 -7 -7z"/>
 <path d="M2433 1423 c4 -3 10 -3 14 0 3 4 0 7 -7 7 -7 0 -10 -3 -7 -7z"/>
 <path d="M4570 1320 c0 -7 3 -10 7 -7 3 4 3 10 0 14 -4 3 -7 0 -7 -7z"/>
 <path d="M4561 1074 c0 -11 3 -14 6 -6 3 7 2 16 -1 19 -3 4 -6 -2 -5 -13z"/>
 </g>
<g id="layer103" fill="#ce4516" stroke="none">
 <path d="M2380 3940 c-122 -54 -182 -65 -274 -52 -111 16 -334 26 -318 14 8 -6 -55 -26 -191 -61 l-204 -52 -189 4 c-218 5 -251 0 -172 -27 29 -10 57 -22 62 -27 5 -4 -121 -5 -280 -2 -159 3 -290 10 -292 14 -2 4 -10 5 -18 2 -11 -4 -4 -13 23 -31 82 -54 273 -225 273 -244 0 -4 -39 -8 -87 -8 l-88 0 30 -18 c17 -11 36 -26 44 -36 8 -9 39 -39 70 -65 l57 -49 59 12 c33 7 105 21 160 31 55 9 145 26 200 36 222 42 416 70 522 76 112 6 489 -13 828 -43 151 -13 179 -12 248 1 43 8 109 15 146 15 38 0 162 7 277 16 323 25 463 15 889 -65 55 -10 145 -27 200 -36 55 -10 127 -24 160 -31 l59 -12 57 49 c31 26 62 56 70 65 8 10 28 25 44 36 l30 18 -87 0 c-49 0 -88 4 -88 8 0 19 190 189 275 246 l40 27 -40 -5 c-22 -3 -164 -8 -315 -10 l-275 -6 65 28 65 27 -230 5 c-249 6 -219 1 -549 91 -30 8 -36 13 -25 21 17 11 -219 1 -295 -13 -101 -19 -177 -6 -318 55 -45 19 -46 19 -45 4 1 -36 -6 -49 -35 -64 -26 -13 -65 -16 -214 -16 -120 0 -194 4 -213 11 -31 13 -54 52 -45 76 7 18 12 19 -66 -15z"/>
 <path d="M970 2773 c0 -4 -9 -66 -20 -137 -11 -71 -20 -147 -20 -170 0 -23 -10 -84 -21 -136 -19 -86 -20 -129 -20 -470 0 -206 -5 -466 -11 -578 -8 -152 -7 -223 2 -285 13 -93 28 -122 65 -129 43 -9 158 18 225 52 62 31 202 128 290 199 188 153 502 339 612 361 45 9 108 8 305 -7 301 -21 365 -21 658 1 281 21 306 18 455 -61 151 -80 335 -199 432 -280 84 -70 243 -180 305 -212 66 -33 186 -61 227 -54 15 3 34 15 42 27 28 44 37 179 26 396 -6 113 -11 372 -11 575 1 336 -1 379 -20 469 -12 54 -21 115 -21 135 0 43 -37 301 -44 308 -10 10 -25 -9 -61 -79 -20 -40 -67 -113 -105 -163 -37 -49 -88 -126 -112 -171 -37 -66 -46 -93 -51 -150 l-5 -69 100 -2 c55 0 102 -4 105 -7 9 -9 -105 -108 -193 -168 l-84 -56 37 -23 c21 -12 80 -52 131 -88 52 -36 102 -71 113 -77 17 -10 4 -17 -93 -49 -69 -23 -141 -39 -185 -42 -40 -3 -73 -10 -73 -15 0 -17 22 -52 71 -114 55 -69 58 -79 28 -71 -19 5 -19 4 -6 -11 8 -9 47 -57 87 -107 104 -129 167 -195 186 -195 35 0 96 -24 105 -42 13 -25 -5 -48 -38 -48 -18 0 -59 34 -151 124 -70 68 -156 149 -192 179 -36 30 -86 79 -112 109 -39 46 -60 60 -135 92 -48 20 -104 50 -123 67 l-35 31 40 -17 c116 -50 234 -94 269 -101 l39 -7 -19 32 c-33 56 -123 111 -183 111 -21 1 -23 2 -10 10 9 5 61 12 115 15 54 3 151 15 214 27 91 17 111 24 96 32 -10 6 -65 44 -122 83 -101 70 -106 72 -149 66 -28 -3 -45 -2 -45 4 0 15 16 26 90 63 77 38 239 142 240 153 0 4 -26 7 -57 8 -32 1 -83 4 -113 8 -53 8 -54 8 -22 16 24 6 32 13 32 30 0 12 7 42 15 65 8 23 15 44 15 46 0 3 -18 -5 -41 -16 -51 -27 -64 -17 -22 16 33 26 133 148 133 162 0 9 -25 11 -315 31 -179 12 -2074 13 -2260 0 -282 -18 -325 -22 -325 -31 0 -14 100 -136 133 -162 42 -33 29 -42 -23 -16 l-42 21 8 -23 c4 -13 13 -43 19 -67 10 -38 17 -47 46 -56 32 -11 30 -12 -45 -18 -44 -4 -96 -7 -118 -7 -21 0 -38 -3 -38 -7 1 -12 167 -117 253 -159 89 -45 103 -70 32 -61 -43 6 -48 4 -149 -66 -57 -39 -112 -77 -122 -83 -15 -9 4 -15 96 -32 63 -12 160 -24 214 -27 54 -3 106 -10 115 -15 13 -8 11 -9 -11 -10 -61 0 -158 -63 -189 -122 -11 -20 -9 -20 27 -14 35 7 154 51 269 101 l40 17 -35 -31 c-19 -17 -75 -47 -123 -67 -73 -31 -96 -46 -130 -87 -23 -27 -91 -93 -152 -147 -60 -54 -149 -136 -197 -184 -61 -61 -93 -86 -111 -86 -33 0 -52 23 -38 48 9 18 70 42 106 42 20 0 44 25 175 180 115 138 116 140 90 133 -29 -8 -25 3 29 71 49 62 71 97 71 114 0 5 -33 12 -72 15 -73 5 -315 76 -289 85 7 2 55 34 106 71 51 36 114 79 140 94 l47 28 -85 57 c-89 60 -203 159 -194 168 3 3 50 7 105 7 l100 2 -5 69 c-7 83 -54 175 -160 317 -39 52 -88 127 -109 168 -34 65 -64 100 -64 74z"/>
 </g>
<g id="layer104" fill="#fdfcfc" stroke="none">
 <path d="M2445 4476 c-45 -18 -144 -69 -220 -114 -78 -45 -175 -92 -219 -106 -87 -29 -285 -67 -474 -91 -146 -19 -209 -41 -399 -140 -78 -41 -182 -86 -232 -101 -78 -24 -88 -29 -73 -40 16 -12 16 -13 -3 -20 -11 -3 -58 -22 -105 -41 -133 -55 -153 -62 -177 -63 -13 0 -23 -4 -23 -10 0 -6 66 -10 178 -10 97 0 229 -3 292 -6 124 -7 133 0 42 32 -79 27 -46 32 172 27 l189 -4 204 52 c136 35 199 55 191 61 -17 12 210 2 314 -14 90 -13 135 -6 256 43 50 19 93 45 122 73 25 23 57 50 72 59 77 47 120 67 147 67 45 0 147 -57 210 -118 59 -56 81 -69 195 -108 74 -26 133 -30 212 -15 76 14 312 24 295 13 -11 -8 -5 -13 25 -21 330 -90 300 -85 549 -91 l230 -5 -65 -27 -65 -27 290 5 c160 3 297 8 305 11 8 3 -10 11 -40 18 -30 7 -98 31 -150 52 -52 22 -104 43 -115 47 -19 7 -19 8 -3 20 15 11 5 16 -75 40 -53 16 -152 59 -232 101 -178 93 -255 122 -363 135 -138 17 -381 59 -459 80 -84 23 -162 57 -247 109 -102 63 -178 102 -254 132 -70 28 -78 29 -245 29 -171 -1 -172 -1 -252 -34z m197 -236 c22 -16 49 -30 58 -30 9 0 36 14 58 30 64 46 123 37 213 -32 19 -15 52 -34 73 -43 32 -13 37 -20 34 -43 -5 -45 -42 -42 -73 7 -31 50 -86 86 -144 96 -37 6 -53 3 -102 -21 l-59 -28 -58 28 c-49 24 -65 27 -106 21 -55 -9 -129 -59 -134 -92 -7 -49 -75 -60 -80 -13 -2 21 10 33 85 82 49 31 97 58 108 61 52 12 86 6 127 -23z"/>
 </g>

</svg>